<svg xmlns="http://www.w3.org/2000/svg" viewBox="0 0 100 100">
  <defs>
    <linearGradient id="bananaGrad" x1="0%" y1="0%" x2="100%" y2="100%">
      <stop offset="0%" style="stop-color:#FFE135;stop-opacity:1" />
      <stop offset="100%" style="stop-color:#FFD000;stop-opacity:1" />
    </linearGradient>
    <linearGradient id="sparkGrad" x1="0%" y1="0%" x2="100%" y2="100%">
      <stop offset="0%" style="stop-color:#A855F7;stop-opacity:1" />
      <stop offset="100%" style="stop-color:#EC4899;stop-opacity:1" />
    </linearGradient>
  </defs>
  <!-- Banana shape -->
  <path d="M25 75 Q15 55 25 35 Q35 15 55 15 Q75 15 80 25 Q70 25 60 35 Q45 55 35 75 Q30 80 25 75" fill="url(#bananaGrad)" stroke="#E5B800" stroke-width="2"/>
  <!-- Banana tip -->
  <ellipse cx="78" cy="23" rx="5" ry="4" fill="#8B6914"/>
  <!-- AI sparkles -->
  <circle cx="70" cy="50" r="4" fill="url(#sparkGrad)"/>
  <circle cx="80" cy="65" r="3" fill="url(#sparkGrad)"/>
  <circle cx="60" cy="70" r="2.5" fill="url(#sparkGrad)"/>
  <!-- Sparkle stars -->
  <path d="M72 45 L74 50 L72 55 L70 50 Z" fill="#fff" opacity="0.8"/>
  <path d="M82 60 L83.5 63 L82 66 L80.5 63 Z" fill="#fff" opacity="0.8"/>
</svg>

